<svg version="1" xmlns="http://www.w3.org/2000/svg" width="1066.667" height="1066.667" viewBox="0 0 800.000000 800.000000"><path d="M370.5 19.2c-2.7.5-5.9 1.1-7 1.3-1.1.2-2.1.4-2.2.5-.3.3-.7.4-5.5 1.3-2.1.5-3.8 1.2-3.8 1.8 0 .6-.4.8-.9.4-.6-.3-3.2.3-5.8 1.3-4.4 1.7-5.6 1.7-11.1.6-16.4-3.4-46-3.8-65.2-1-7.2 1-11.5 1.8-12.1 2.1-.3.2-2.1.7-4 1-4.6.9-6.4 1.3-6.4 1.5 0 .1-.8.3-1.7.5-2.9.5-18.1 5.6-21.8 7.2-12.4 5.5-22 10.5-21.5 11.3.3.6-.1.7-.9.4-.8-.3-2.4.4-3.5 1.5-1.2 1.2-2.3 2-2.5 1.8-.3-.1-2.9 1.5-6 3.5-4.5 3-6.6 3.8-12.3 4.2-13.7 1.2-34 6.6-32.7 8.8.4.7.2.8-.5.4-1.1-.7-6.5 1.1-10.1 3.5-.8.5-3.4 1.9-5.7 3.1-2.4 1.2-4.3 2.6-4.3 3 0 .4-.6.8-1.2.8-.7 0-2.5 1-4 2.3-1.5 1.2-3.9 3-5.3 4s-2.3 2.2-2 2.6c.2.5-.3.8-1.3.7-.9 0-1.6.5-1.4 1.2.1.6-.2 1.1-.6 1-1.5-.5-11.4 9.3-18.5 18.1-4.5 5.5-8.8 12.1-8 12.1 1.1 0-4.4 3.6-9.2 6.1-5.9 2.9-8.3 4.4-11.1 6.8-1.3 1.1-2.7 2.1-3 2.1-1.7 0-21.4 18.1-21.4 19.7 0 .3-1.1 1.4-2.5 2.5s-2.5 2.5-2.5 3.3c0 .7-.4 1.5-.8 1.7-1.7.6-8.5 11.2-12.7 19.7-4.6 9.2-9.9 24.7-9.1 26.7.2.6 0 1.6-.5 2.1-1.8 1.8-3.2 23-1.7 25 .6.7.5 1.4-.2 1.8-.6.3-.8 1.1-.4 1.6.3.6.8 3.5 1.1 6.5.2 3.1 1 7.2 1.7 9.2.9 2.4 1 4.5.5 6-.5 1.3-.7 2.8-.4 3.2.3.5.1 1.1-.4 1.4-1.9 1.2-3.3 16.3-1.7 18.5.8 1.1.8 1.3-.1.8-1.2-.8-1.1 6.5.3 13.8.7 4.1 4.6 15.9 5.3 16.5.3.3.7 1.1.9 1.9.6 2.6 8.9 14.6 13.6 19.6 3.8 4 4.9 4.7 5.7 3.5.8-1.2.9-1.1.7.4-.2 1.4 1.2 3 4.9 5.5 2.9 2 5.2 4.3 5.3 5.2 0 .9.3 1.9.7 2.3.4.3.8 1.2.9 1.9.5 3.8 8.4 17.5 12.6 22.1 1 1.1 1.8 2.4 1.8 2.9s.7.6 1.6.3c.8-.3 1.3-.2 1 .3-.8 1.2 3.4 5.2 4.6 4.5.6-.4.8-.3.5.4-1 1.4 13.5 11.5 15.9 11.1.4 0 1 .3 1.3.8 1.4 2.1 17.7 7.5 27.1 9 1.4.2 7.6.6 13.8.8 6.3.2 11.6.6 11.8.8.3.2 1.1 3.3 1.9 6.8 2.5 11.3 3.6 15.2 4.9 18.4.8 1.6 2.1 5.1 3.1 7.8.9 2.6 2 4.5 2.3 4.3.4-.2.8.6.8 1.8.1 1.3 1.3 4.1 2.8 6.4 1.4 2.3 2.6 4.6 2.6 5.2 0 .5.4 1 .8 1 .5 0 1.4 1.2 2 2.6.7 1.5 1.7 2.2 2.4 1.8.6-.4.8-.3.4.4-1.2 2 13 18.1 22.4 25.2 1.8 1.4 4.2 3.3 5.3 4.2 1 1 2.8 2 3.9 2.4 1.1.3 2.8 1.4 3.8 2.4 2.4 2.4 24 13 26.8 13.3 1.2.1 2.2.4 2.2.8s1.2 1 2.8 1.4c1.5.5 3.2.9 3.7 1.1.6.1 4.2 1.2 8 2.4 3.9 1.2 8.1 2.3 9.5 2.6 1.4.2 3.6.7 5 1.1 4.1 1 5.3 1.2 9.5 1.7 2.2.2 4.7.7 5.5 1 .8.3 4.2.8 7.5 1 3.3.3 7.5.8 9.3 1 2.4.4 3.1.2 2.5-.7-.5-.9-.4-.9.8 0 1.8 1.5 12.1 1.4 11.1-.1-.4-.7-.1-.7.9 0 1.8 1.4 10.2.9 23.9-1.6 13.3-2.3 30.2-7.5 36.7-11.3 1.7-1 3.3-1.4 3.6-1 .2.4.5 3 .6 5.8.5 14.7 2.3 24 6.2 33.2 2.5 6.1 10 17.3 11.5 17.3.7 0 1.4.6 1.7 1.4.3.7 4.1 3.8 8.4 6.8 4.4 3.1 9.2 7 10.8 8.6 1.6 1.7 3.3 2.8 3.8 2.5.6-.3.7-.2.4.4-.8 1.3 3.7 5.6 4.8 4.6.4-.5.5-.2.1.5-.5.8-.1 2.1.7 3 4.8 5.3 13.9 24.2 17.7 36.7.7 2.2 1.5 4.7 1.8 5.5.3.8.6 2.2.8 3 .7 3.6 1.8 8.6 2.1 10 .4 1.6.7 3.5 1.7 12 .4 3 1 7.3 1.3 9.5.3 2.2.7 14.2.8 26.6.1 12.4.5 23 .8 23.6.4.7.4 1.4 0 1.6-1 .6-1 28.8 0 30.4.4.6.3 1.4-.2 1.7-1.2.8-.2 8.6 1.6 11.7 3 5.1 10.5 7.7 15.9 5.4 3.6-1.5 8.6-5.9 7.7-6.8-.3-.4-.1-.7.5-.7s3.3-2.3 5.9-5.1c2.6-2.8 7.1-7.6 10-10.7 2.9-3 4.9-6 4.6-6.5-.3-.6-.2-.7.4-.4 1.1.7 10.6-8.6 9.8-9.6-.3-.4-.2-.5.1-.2.9.6 5.4-4.7 4.8-5.6-.2-.4.2-.9 1-1.2 2.7-1.1 3.8-10.2 3.8-32.5 0-12.1-.3-22.5-.6-23.1-.4-.6-.2-1.1.4-1.1.7 0 .8-.6.1-1.9-.6-1-.8-2.1-.4-2.4.3-.3.5-4.2.5-8.5l-.1-7.9 8.9.3c10.5.4 15.4-1.2 21.1-6.9 4.4-4.2 3.3-4.2 18.9-1.1 11.5 2.3 49 2.5 49 .3 0-.4.8-.5 1.8-.3 1.4.4 8.4-1 20.2-4 6.6-1.7 26-10.3 26-11.6 0-.4.6-.7 1.3-.7 1.4 0 12.1-7.1 15.2-10 1.1-1.1 3.3-2.8 4.8-3.7 1.5-1 2.4-2.2 2.1-2.7-.3-.5 0-.9.5-.9 2.2 0 17.1-18.1 17.1-20.7 0-.3.6-1.4 1.4-2.2.8-.9 2.4-4.1 3.6-7.1 1.2-3 2.6-6.4 3.1-7.5.9-2.3 2.9-9.8 3.5-13.5.2-1.4.7-3.6 1-5 1-4.4.5-22.2-.7-23.6-.9-1.1-.7-1.4.7-1.5 1.1 0 2.6-.2 3.4-.4 1.9-.5 5.8-1.3 8.9-2 4.7-.9 9.1-2.7 9.1-3.6 0-.6.5-.7 1-.4 1.2.8 7.6-2.6 14.9-7.9 13.4-9.7 25.6-26.1 31.5-42.5 5.1-14.1 6.3-19.9 7.2-35.5.5-7.7 1.1-10.8 3-14.4 1.4-2.5 2.2-5.2 1.9-6-.2-.7 0-1 .5-.7.6.3 1 .4 1 .1 0-.2 1.1-4.6 2.5-9.8 1.3-5.1 2.7-10.7 3-12.3.5-2.4 1.6-18 1.7-23 0-1.9-1.2-15-1.6-17-.2-1.1-.7-4-1.1-6.5-1.3-7.8-6.4-22.4-11.4-32.8-2.8-5.5-5.4-10.3-5.9-10.6-.5-.3-1-2.5-1.1-4.8-.2-5.1-.7-11-1.5-15.7-1.2-7.5-6.5-20.7-9-22.3-.6-.4-.7-.8-.3-.8 1.7 0-8.1-12.8-15.3-20-9-9-10.7-10.3-18.7-15.5-5.7-3.6-6.3-4.3-6.4-7.5-.1-4.6-.7-10.6-1.6-15-.4-1.9-.8-4.2-.9-5-.9-7.5-12.1-32.7-14.3-32.2-.7.1-.9-.2-.6-.9 1-1.5-1.6-6.1-3.1-5.5-.7.3-1-.2-.8-1.2.3-.9-.6-2.9-1.8-4.5-1.3-1.5-3.4-4.2-4.8-6-3.7-4.7-17.9-18.8-22.5-22.2-2.2-1.6-4.3-3.4-4.7-4-.4-.5-.8-.6-.8-.2 0 .4-.9-.1-2-1.1s-3.3-2.5-4.8-3.3c-1.5-.8-2.9-1.6-3.2-1.9-1.3-1.4-11-6-11-5.3 0 .4-.4.3-.8-.3-1.3-1.8-8-4.4-9.8-3.7-1.1.4-1.5.3-1.1-.4.5-.7-1.8-1.8-6.2-2.9-6.5-1.7-7-2-9.9-6.8-4.5-7.5-15.3-20.6-16.8-20.6-.8 0-1.3-.4-1.2-.8.4-1.1-12.5-12.2-14.1-12.2-.6 0-1.1-.5-1.1-1 0-.6-.7-1-1.5-1s-1.5-.4-1.5-.8c0-.5-1.7-1.7-3.7-2.8-2.1-1-4.1-2.3-4.4-2.8-.4-.5-1.2-.5-1.9-.1-.8.5-1.1.4-.7-.2.8-1.3-14.7-8.2-23.3-10.5-1.9-.5-4.2-1.1-5-1.3-5.2-1.5-10.3-2.6-16-3.2-12.2-1.4-37.5-.4-39 1.5-.3.4-2 .8-3.9 1-1.9.1-4 .7-4.6 1.2-.7.5-1.5.7-1.8.3-.4-.3-1.2-.1-1.9.4-.7.6-3 1.6-5.1 2.3-3.4 1.1-4.1 1-6-.8-4.2-3.8-10.6-7.4-11.8-6.6-.8.4-.9.3-.5-.4.9-1.5-15.8-9.8-23.9-11.8-.5-.2-3.5-1-6.5-1.9-3-.8-6.6-1.7-8-2-1.4-.3-3.6-.8-5-1.1-4.2-1-34.2-1.2-39.5-.2zm13.6 28.1c-1 .9-1.1.8-.5-.6.3-1 .9-1.5 1.2-1.2.3.3 0 1.1-.7 1.8zM285 63.6c0 .8-1.9 1.3-2.4.6-.3-.5.1-.9.9-.9s1.5.2 1.5.3zm-50 31.8c0 .3-.4.8-1 1.1-.5.3-1 .1-1-.4 0-.6.5-1.1 1-1.1.6 0 1 .2 1 .4zm-40 32.2c0 .8-1.9 1.3-2.4.6-.3-.5.1-.9.9-.9s1.5.2 1.5.3zm204.5.3c-.9.8-3.6 1-3 .2.2-.4 1.1-.8 2-.8.8 0 1.3.3 1 .6zm12 .1c-.3.5-1.2 1-1.8 1-.7 0-.6-.4.3-1 1.9-1.2 2.3-1.2 1.5 0zm229.5 3.4c0 .3-.4.8-1 1.1-.5.3-1 .1-1-.4 0-.6.5-1.1 1-1.1.6 0 1 .2 1 .4zm-442 28.8c0 .4-.4.8-.9.8-.6 0-1.2-.4-1.5-.8-.3-.5.1-.9.9-.9s1.5.4 1.5.9zm12-.2c0 .5-.4 1-1 1-.5 0-1-.5-1-1 0-.6.5-1 1-1 .6 0 1 .4 1 1zm416.5 0c.3.6-.1.7-.9.4-1.8-.7-2.1-1.4-.7-1.4.6 0 1.3.4 1.6 1zM29 191.6c0 .8-1.9 1.3-2.4.6-.3-.5.1-.9.9-.9s1.5.2 1.5.3zm120.4.2c.3.5-.1.9-.9.9s-1.2-.4-.9-.9c.3-.4.7-.8.9-.8.2 0 .6.4.9.8zm129.1 1c-.3.3-1.1 0-1.8-.7-.9-1-.8-1.1.6-.5 1 .3 1.5.9 1.2 1.2zM399 207.4c0 .2-.7.7-1.6 1-.8.3-1.2.2-.9-.4.6-1 2.5-1.4 2.5-.6zM241 214c0 .5-.5 1-1.1 1-.5 0-.7-.5-.4-1 .3-.6.8-1 1.1-1 .2 0 .4.4.4 1zM85 224c0 .5-.2 1-.4 1-.3 0-.8-.5-1.1-1-.3-.6-.1-1 .4-1 .6 0 1.1.4 1.1 1zm126.5 16c-.3.5-1.2 1-1.8 1-.7 0-.6-.4.3-1 1.9-1.2 2.3-1.2 1.5 0zM33 243.9c0 .6-.4 1.2-.8 1.5-.5.3-.9-.1-.9-.9s.4-1.5.9-1.5c.4 0 .8.4.8.9zm618 11.5c0 .2-.7.7-1.6 1-.8.3-1.2.2-.9-.4.6-1 2.5-1.4 2.5-.6zM19.5 272c.3.6-.1.7-.9.4-1.8-.7-2.1-1.4-.7-1.4.6 0 1.3.4 1.6 1zm68 0c-.3.5-1.2 1-1.8 1-.7 0-.6-.4.3-1 1.9-1.2 2.3-1.2 1.5 0zM44 288c.8.5 1.1 1 .5 1-.5 0-1.7-.5-2.5-1s-1-1-.5-1c.6 0 1.7.5 2.5 1zm259 0c0 .5-.4 1-1 1-.5 0-1-.5-1-1 0-.6.5-1 1-1 .6 0 1 .4 1 1zm12.4.2c-.3.4-.9.8-1.5.8-.5 0-.9-.4-.9-.8 0-.5.7-.9 1.5-.9s1.2.4.9.9zM604 288c.8.5 1.1 1 .5 1-.5 0-1.7-.5-2.5-1s-1-1-.5-1c.6 0 1.7.5 2.5 1zm165 5.4c0 .3-.4.8-1 1.1-.5.3-1 .1-1-.4 0-.6.5-1.1 1-1.1.6 0 1 .2 1 .4zm-114 10c0 .2-.7.7-1.6 1-.8.3-1.2.2-.9-.4.6-1 2.5-1.4 2.5-.6zm115 0c0 .2-.8 1-1.7 1.7-1.6 1.3-1.7 1.2-.4-.4 1.3-1.6 2.1-2.1 2.1-1.3zM641 330c0 .5-.2 1-.4 1-.3 0-.8-.5-1.1-1-.3-.6-.1-1 .4-1 .6 0 1.1.4 1.1 1zm-416.2 4.5c-.3.3-.9-.2-1.2-1.2-.6-1.4-.5-1.5.5-.6.7.7 1 1.5.7 1.8zm-64 8c-.3.3-.9-.2-1.2-1.2-.6-1.4-.5-1.5.5-.6.7.7 1 1.5.7 1.8zm63.8 4c-.1.8-.5 1.7-.8 2.1-.5.4-.4-1.6.1-3.4.3-.9.9.1.7 1.3zm437.4 5.1c0 .8-1.9 1.3-2.4.6-.3-.5.1-.9.9-.9s1.5.2 1.5.3zm-21.6 5c.3.8.2 1.2-.4.9-.6-.3-1-1-1-1.6 0-1.4.7-1.1 1.4.7zm.6 15.4c0 .5-.2 1-.4 1-.3 0-.8-.5-1.1-1-.3-.6-.1-1 .4-1 .6 0 1.1.4 1.1 1zm-256 2c0 .5-.5 1-1.1 1-.5 0-.7-.5-.4-1 .3-.6.8-1 1.1-1 .2 0 .4.4.4 1zM75 384c0 .5-.5 1-1.1 1-.5 0-.7-.5-.4-1 .3-.6.8-1 1.1-1 .2 0 .4.4.4 1zm498.4-.2c.3.5-.1.9-.9.9s-1.5-.4-1.5-.9c0-.4.4-.8.9-.8.6 0 1.2.4 1.5.8zm41.1 1c-.3.3-1.1 0-1.8-.7-.9-1-.8-1.1.6-.5 1 .3 1.5.9 1.2 1.2zm13.1-.6c.3.4-.1.5-1 .4-.8-.1-1.8-.5-2.2-.8-.3-.4.1-.5 1-.4.8.1 1.8.5 2.2.8zM401 411.4c0 .3-.4.8-1 1.1-.5.3-1 .1-1-.4 0-.6.5-1.1 1-1.1.6 0 1 .2 1 .4zm-240 14c0 .3-.4.8-1 1.1-.5.3-1 .1-1-.4 0-.6.5-1.1 1-1.1.6 0 1 .2 1 .4zm50.5 38.6c.3.6-.1.7-.9.4-1.8-.7-2.1-1.4-.7-1.4.6 0 1.3.4 1.6 1zm384 0c.3.6-.1.7-.9.4-1.8-.7-2.1-1.4-.7-1.4.6 0 1.3.4 1.6 1zm44.6 11.3c-1 .9-1.1.8-.5-.6.3-1 .9-1.5 1.2-1.2.3.3 0 1.1-.7 1.8zM236 480c.8.5 1.1 1 .5 1-.5 0-1.7-.5-2.5-1s-1-1-.5-1c.6 0 1.7.5 2.5 1zm295-.2c0 .5-.7.9-1.5.9s-1.2-.4-.9-.9c.3-.4.9-.8 1.5-.8.5 0 .9.4.9.8zm-209.9 15.9c1.3 1.6 1.2 1.7-.3.4-1.7-1.3-2.2-2.1-1.4-2.1.2 0 1 .8 1.7 1.7zM208.5 502c.3.5.1 1-.4 1-.6 0-1.1-.5-1.1-1 0-.6.2-1 .4-1 .3 0 .8.4 1.1 1zm416.2 18.5c0 .8-.4 1.2-.9.9-.5-.3-.6-1-.3-1.5.9-1.3 1.2-1.1 1.2.6zm30.3 22.9c0 .2-.7.7-1.6 1-.8.3-1.2.2-.9-.4.6-1 2.5-1.4 2.5-.6zm13.6.8c.3.4-.1.5-1 .4-.8-.1-1.8-.5-2.2-.8-.3-.4.1-.5 1-.4.8.1 1.8.5 2.2.8zm-172.2 50.4c.3.8.2 1.2-.4.9-.6-.3-1-1-1-1.6 0-1.4.7-1.1 1.4.7z"/></svg>